PathFileType	4	(X/Y/Z)	./resultDataOpenSim/trcMotMarkerGrf/sub09/qtm-12-03.trc
DataRate	CameraRate	NumFrames	NumMarkers	Units	OrigDataRate	OrigDataStartFrame	OrigNumFrames
250.000000	250.000000	6	24	m	250.000000	350	466
Frame#	Time	L.Toe.Tip			R.Toe.Tip			L.Ankle.Lat			R.Ankle.Lat			L.Ankle.Med			R.Ankle.Med			L.Heel			R.Heel			L.Knee.Lat			R.Knee.Lat			L.Knee.Med			R.Knee.Med			L.Thigh.Upper			R.Thigh.Upper			L.ASIS			R.ASIS			V.Sacral			L.Acromium			R.Acromium			C7			L.Elbow			R.Elbow			L.Wrist.Lat			R.Wrist.Lat
		X1	Y1	Z1	X2	Y2	Z2	X3	Y3	Z3	X4	Y4	Z4	X5	Y5	Z5	X6	Y6	Z6	X7	Y7	Z7	X8	Y8	Z8	X9	Y9	Z9	X10	Y10	Z10	X11	Y11	Z11	X12	Y12	Z12	X13	Y13	Z13	X14	Y14	Z14	X15	Y15	Z15	X16	Y16	Z16	X17	Y17	Z17	X18	Y18	Z18	X19	Y19	Z19	X20	Y20	Z20	X21	Y21	Z21	X22	Y22	Z22	X23	Y23	Z23	X24	Y24	Z24

350	1.396	0.94318848	0.11496313	-0.11702624	1.0962521	0.039156344	-0.00080439547	0.85479307	0.23936094	-0.14333666	0.94953953	0.060063162	0.043366322	0.88524257	0.23214303	-0.049264827	0.95765757	0.099145482	-0.047926205	0.77575319	0.25188647	-0.092738297	0.87891627	0.043443744	-0.0028510188	1.1515913	0.51774459	-0.17148656	1.0537005	0.50630188	0.10485227	1.1629804	0.50561702	-0.045414957	1.0261656	0.49935027	-0.020329289	0.98352892	0.89625821	-0.19743677	1.0051399	0.91320952	0.17320556	1.0598379	0.9850961	-0.14605702	1.0867863	0.99762911	0.089812731	0.90705302	1.0476054	-0.014329244	1.0632783	1.4362511	-0.20916773	1.0794892	1.4559671	0.12034831	1.0073282	1.4990807	-0.040524676	0.88195376	1.1133881	-0.25013018	0.91498407	1.1378926	0.23392516	1.0099491	0.87753992	-0.27610013	1.0551605	0.89991886	0.24502522
351	1.4	0.9620044	0.11231263	-0.11794115	1.0963087	0.039115481	-0.00063228554	0.87036597	0.23420824	-0.14412005	0.9496618	0.060465308	0.043504262	0.90133291	0.22758158	-0.050125979	0.95812389	0.099678019	-0.047685924	0.79086184	0.24469313	-0.093559775	0.87928739	0.043863161	-0.0025750089	1.160913	0.51967535	-0.17160138	1.055482	0.50641625	0.10503001	1.1719733	0.50729365	-0.045617598	1.0282632	0.49985389	-0.020146543	0.98972475	0.89704728	-0.19777829	1.0102592	0.91386871	0.17297913	1.0657643	0.98598857	-0.14623031	1.0923241	0.9982053	0.089697339	0.91278235	1.0481444	-0.01481566	1.0681703	1.4370813	-0.20944313	1.0848551	1.456671	0.12016558	1.0125222	1.4997506	-0.040570739	0.88688071	1.1142009	-0.25001513	0.92101649	1.1381318	0.23393045	1.0143209	0.87815756	-0.27662114	1.0624799	0.90090049	0.24429791
352	1.404	0.98104433	0.10963474	-0.11883869	1.0963995	0.039050184	-0.00052586592	0.88610944	0.22893188	-0.14491616	0.94973857	0.060875986	0.043636427	0.9173847	0.22294965	-0.050960227	0.95873691	0.10026032	-0.047380094	0.8062393	0.23733297	-0.094522849	0.87959182	0.044296428	-0.0024234267	1.1702046	0.5214143	-0.17168257	1.0573782	0.50651336	0.10524165	1.1808083	0.50883072	-0.04583028	1.0305495	0.50028324	-0.019849943	0.99591841	0.8977411	-0.19813576	1.0155024	0.91448829	0.17274766	1.0716953	0.98678765	-0.14641048	1.0978495	0.99872394	0.089582716	0.91851505	1.048643	-0.015251614	1.0730346	1.4378282	-0.20968596	1.090202	1.4573195	0.11997613	1.0177446	1.5003504	-0.040598674	0.89182737	1.1149467	-0.24990347	0.92702572	1.1382892	0.23390441	1.0187105	0.87870909	-0.27712895	1.0697878	0.90182551	0.24357503
353	1.408	1.0002289	0.1069381	-0.11974845	1.0965635	0.038989987	-0.00050396219	0.9019908	0.22353988	-0.14569688	0.94978484	0.06128576	0.043766204	0.93341239	0.21825176	-0.051767591	0.95941341	0.10079368	-0.047114102	0.82196062	0.22981907	-0.095676601	0.87976976	0.044793683	-0.0024092091	1.1793543	0.52302247	-0.17179156	1.0593025	0.50660784	0.10547197	1.1894891	0.51023086	-0.046053249	1.0328165	0.50069008	-0.019509403	1.0021126	0.89834428	-0.19849046	1.0208678	0.91505216	0.17250608	1.0776341	0.98749567	-0.1465902	1.1033678	0.99918501	0.089470596	0.92424135	1.0490923	-0.01564659	1.0778837	1.4385005	-0.20990916	1.0955443	1.4579151	0.11977061	1.0229754	1.5008598	-0.040617536	0.89679009	1.11563	-0.24979943	0.93305066	1.1383967	0.23388241	1.0231169	0.87919877	-0.27762732	1.0770989	0.90270116	0.24286188
354	1.412	1.0194616	0.10424363	-0.12066843	1.0967899	0.038955108	-0.00051822758	0.91800491	0.21804119	-0.14646099	0.94986666	0.06167471	0.043874679	0.94944366	0.21350992	-0.052540328	0.9597973	0.1011796	-0.046987411	0.83799722	0.22215254	-0.096929483	0.87985	0.045333026	-0.002487435	1.1882935	0.52454297	-0.17195919	1.0611164	0.50669722	0.10571657	1.1980197	0.5114971	-0.046286721	1.0349156	0.50110716	-0.019197811	1.0083237	0.89885781	-0.19883633	1.0262462	0.91555194	0.17226134	1.0835891	0.98812325	-0.14677145	1.1088889	0.99959201	0.089361102	0.92991891	1.0494786	-0.016039909	1.08273	1.4391117	-0.21012657	1.1008846	1.4584588	0.11954707	1.0281623	1.501298	-0.040661703	0.90176086	1.1162624	-0.24970656	0.93910841	1.1384711	0.23388027	1.0275475	0.87962111	-0.27812706	1.0844036	0.90352806	0.24216229
355	1.416	1.0386867	0.101566	-0.12156548	1.0970029	0.03893704	-0.00050430363	0.93417016	0.21244855	-0.14722496	0.95000246	0.062046157	0.043954796	0.96550491	0.20873668	-0.053274722	0.95969582	0.10141664	-0.047002314	0.85423534	0.21433934	-0.098115773	0.87989718	0.045897305	-0.0025780606	1.1970371	0.52597332	-0.1721656	1.0628055	0.50676861	0.10596179	1.2064038	0.51263216	-0.046530928	1.0368579	0.50151994	-0.018930187	1.0145916	0.89928253	-0.19919478	1.031455	0.91596952	0.17202664	1.0895667	0.98868106	-0.1469561	1.1144193	0.99994873	0.089251701	0.9355595	1.0497901	-0.016460169	1.0875807	1.4396731	-0.21034231	1.1062157	1.4589509	0.11931199	1.0332999	1.5016945	-0.040744052	0.90673579	1.1168548	-0.24963197	0.94518435	1.138506	0.23388403	1.0320167	0.87996813	-0.27863924	1.0917047	0.90430435	0.24147096
